<?xml version="1.0" encoding="UTF-8"?>
<svg xmlns="http://www.w3.org/2000/svg" xmlns:xlink="http://www.w3.org/1999/xlink" width="303px" height="499px" viewBox="0 0 304 500" version="1.1">
<g id="surface1">
<path style=" stroke:none;fill-rule:evenodd;fill:rgb(100%,82.352941%,0%);fill-opacity:1;" d="M 123.753906 85.757812 C 117.429688 88.164062 111.460938 91.269531 105.765625 94.816406 C 91.972656 103.390625 79.792969 114.347656 67.035156 124.234375 C 55.214844 133.394531 43.132812 141.480469 29.238281 147 C 30.574219 149.203125 31.777344 151.480469 32.832031 153.851562 C 39.515625 168.902344 39.269531 188.003906 39.25 204.09375 C 39.222656 228.125 39.34375 252.148438 39.375 276.183594 C 39.390625 288.113281 39.554688 300.308594 40.632812 312.199219 C 41.003906 316.285156 41.824219 324.890625 43.699219 328.59375 L 43.875 328.925781 L 44.003906 329.277344 C 49.46875 344.03125 58.785156 355.652344 73.707031 362.515625 C 91.855469 369.734375 110.332031 377.546875 127.507812 386.691406 C 135.261719 390.820312 144.660156 396.191406 151.90625 402.316406 C 159.152344 396.191406 168.554688 390.820312 176.3125 386.691406 C 193.484375 377.546875 211.964844 369.734375 230.113281 362.515625 C 245.035156 355.652344 254.347656 344.03125 259.816406 329.277344 L 259.945312 328.925781 L 260.113281 328.59375 C 261.996094 324.890625 262.8125 316.285156 263.183594 312.199219 C 264.265625 300.308594 264.429688 288.113281 264.441406 276.183594 C 264.472656 252.148438 264.59375 228.125 264.5625 204.09375 C 264.542969 188.003906 264.300781 168.902344 270.988281 153.851562 C 272.035156 151.480469 273.242188 149.203125 274.582031 147 C 260.6875 141.480469 248.601562 133.394531 236.785156 124.234375 C 224.027344 114.347656 211.847656 103.390625 198.050781 94.816406 C 192.355469 91.269531 186.390625 88.164062 180.0625 85.757812 C 170.960938 84.023438 161.320312 82.726562 152.035156 82.886719 L 151.78125 82.886719 C 142.5 82.726562 132.855469 84.023438 123.753906 85.757812 "/>
<path style=" stroke:none;fill-rule:evenodd;fill:rgb(0%,35.294118%,100%);fill-opacity:1;" d="M 126.929688 96.625 C 121.316406 98.859375 116.023438 101.753906 110.96875 105.050781 C 98.730469 113.03125 87.921875 123.230469 76.605469 132.429688 C 66.121094 140.957031 55.394531 148.484375 43.070312 153.621094 C 44.253906 155.671875 45.328125 157.792969 46.257812 160 C 52.1875 174.003906 51.972656 191.785156 51.957031 206.761719 C 51.929688 229.128906 52.035156 251.488281 52.0625 273.855469 C 52.078125 284.960938 52.21875 296.3125 53.179688 307.378906 C 53.507812 311.175781 54.238281 319.191406 55.90625 322.632812 L 56.054688 322.945312 L 56.167969 323.269531 C 61.019531 337.003906 69.285156 347.820312 82.523438 354.210938 C 98.625 360.929688 115.019531 368.199219 130.261719 376.707031 C 137.136719 380.554688 145.480469 385.550781 151.90625 391.25 C 158.339844 385.550781 166.675781 380.554688 173.558594 376.707031 C 188.796875 368.199219 205.191406 360.929688 221.292969 354.210938 C 234.535156 347.820312 242.800781 337.003906 247.648438 323.269531 L 247.765625 322.945312 L 247.914062 322.632812 C 249.582031 319.191406 250.308594 311.175781 250.636719 307.378906 C 251.59375 296.3125 251.742188 284.960938 251.757812 273.855469 C 251.785156 251.488281 251.890625 229.128906 251.863281 206.761719 C 251.84375 191.785156 251.628906 174.003906 257.558594 160 C 258.492188 157.792969 259.5625 155.671875 260.75 153.621094 C 248.417969 148.484375 237.699219 140.957031 227.210938 132.429688 C 215.894531 123.230469 205.085938 113.03125 192.851562 105.050781 C 187.796875 101.753906 182.5 98.859375 176.886719 96.625 C 168.816406 95.011719 160.257812 93.796875 152.019531 93.945312 L 151.90625 93.949219 L 151.796875 93.945312 C 143.5625 93.796875 135.003906 95.011719 126.929688 96.625 "/>
<path style=" stroke:none;fill-rule:evenodd;fill:rgb(0.784314%,61.176471%,33.333333%);fill-opacity:1;" d="M 127.898438 375.410156 C 128.691406 375.839844 129.476562 376.269531 130.261719 376.707031 C 137.136719 380.554688 145.480469 385.550781 151.90625 391.25 L 151.90625 295.75 L 127.898438 295.75 L 127.898438 375.410156 "/>
<path style=" stroke:none;fill-rule:evenodd;fill:rgb(0.784314%,61.176471%,33.333333%);fill-opacity:1;" d="M 175.917969 96.429688 C 168.128906 94.914062 159.925781 93.804688 152.019531 93.945312 L 151.90625 93.949219 L 151.90625 164.945312 L 175.917969 164.945312 L 175.917969 96.429688 "/>
<path style=" stroke:none;fill-rule:evenodd;fill:rgb(0.784314%,61.176471%,33.333333%);fill-opacity:1;" d="M 51.953125 208.207031 C 51.945312 216.1875 51.957031 224.164062 51.972656 232.140625 L 82.277344 232.140625 L 82.277344 208.207031 L 51.953125 208.207031 "/>
<path style=" stroke:none;fill-rule:evenodd;fill:rgb(0.784314%,61.176471%,33.333333%);fill-opacity:1;" d="M 251.789062 256.082031 C 251.808594 248.101562 251.832031 240.121094 251.847656 232.140625 L 217.765625 232.140625 L 217.765625 256.082031 L 251.789062 256.082031 "/>
<path style=" stroke:none;fill-rule:evenodd;fill:rgb(12.156863%,9.803922%,37.647059%);fill-opacity:1;" d="M 28.660156 206.753906 C 27.847656 171.8125 23.207031 156.710938 2.015625 138.867188 C 55.710938 136.839844 76.859375 87.140625 125.152344 72.867188 C 126.074219 72.675781 126.992188 72.496094 127.898438 72.332031 L 127.898438 90.117188 C 126.996094 90.285156 126.082031 90.464844 125.152344 90.652344 C 90.730469 104.105469 70.667969 138.757812 33.574219 150.496094 C 44.316406 165.074219 45.894531 176.867188 45.734375 206.753906 L 45.773438 232.140625 L 29.105469 232.140625 C 29.007812 224.566406 28.863281 216.148438 28.660156 206.753906 Z M 151.90625 70.644531 C 160.359375 70.179688 169.277344 70.917969 178.664062 72.867188 C 226.957031 87.140625 248.105469 136.839844 301.796875 138.867188 C 280.609375 156.710938 275.96875 171.8125 275.152344 206.753906 L 275.125 208.207031 L 258.082031 208.207031 L 258.085938 206.753906 C 257.925781 176.867188 259.503906 165.074219 270.242188 150.496094 C 233.148438 138.757812 213.085938 104.105469 178.664062 90.652344 C 168.421875 88.574219 159.503906 87.609375 151.90625 87.746094 Z M 274.710938 232.140625 C 273.898438 294.023438 275.925781 299.472656 271.695312 318.488281 C 269.710938 329.472656 265.878906 339.363281 260.207031 348.160156 C 250.046875 366.457031 231.980469 379.050781 206.015625 385.945312 C 194.320312 390.695312 184.285156 395.792969 175.917969 401.234375 L 175.917969 382.507812 C 187.992188 375.710938 203.964844 368.164062 223.847656 359.867188 C 237.867188 353.15625 247.757812 341.644531 253.519531 325.328125 C 256.457031 319.261719 257.945312 302.105469 257.976562 273.863281 L 258.042969 232.140625 Z M 166.074219 408.421875 C 165.847656 408.609375 165.625 408.796875 165.398438 408.988281 C 165.625 408.796875 165.847656 408.609375 166.074219 408.421875 Z M 165.367188 409.015625 C 164.894531 409.414062 164.429688 409.8125 163.972656 410.214844 C 164.429688 409.8125 164.894531 409.414062 165.367188 409.015625 Z M 162.5 411.542969 C 162.289062 411.738281 162.082031 411.929688 161.878906 412.125 C 162.082031 411.929688 162.289062 411.738281 162.5 411.542969 Z M 161.171875 412.796875 C 160.976562 412.984375 160.789062 413.171875 160.597656 413.359375 C 160.789062 413.171875 160.976562 412.984375 161.171875 412.796875 Z M 160.527344 413.425781 C 160.339844 413.613281 160.152344 413.804688 159.964844 413.996094 C 160.152344 413.804688 160.339844 413.613281 160.527344 413.425781 Z M 158.050781 416.003906 C 157.875 416.195312 157.703125 416.390625 157.527344 416.585938 C 157.703125 416.390625 157.875 416.195312 158.050781 416.003906 Z M 157.484375 416.632812 C 157.304688 416.835938 157.125 417.039062 156.949219 417.242188 C 157.125 417.039062 157.304688 416.835938 157.484375 416.632812 Z M 156.910156 417.289062 C 156.359375 417.917969 155.832031 418.550781 155.324219 419.191406 C 155.832031 418.550781 156.359375 417.917969 156.910156 417.289062 Z M 155.269531 419.257812 C 155.101562 419.464844 154.9375 419.671875 154.777344 419.878906 C 154.9375 419.671875 155.101562 419.464844 155.269531 419.257812 Z M 154.761719 419.898438 C 154.601562 420.101562 154.449219 420.304688 154.292969 420.507812 C 154.449219 420.304688 154.601562 420.101562 154.761719 419.898438 Z M 153.738281 421.261719 C 153.589844 421.457031 153.449219 421.652344 153.308594 421.847656 Z M 153.265625 421.910156 C 153.121094 422.109375 152.984375 422.308594 152.847656 422.507812 C 152.984375 422.308594 153.125 422.109375 153.265625 421.910156 Z M 152.777344 422.609375 C 152.636719 422.808594 152.5 423.011719 152.363281 423.214844 C 152.5 423.011719 152.636719 422.808594 152.777344 422.609375 Z M 152.335938 423.253906 C 152.191406 423.46875 152.046875 423.691406 151.90625 423.90625 C 142.539062 409.441406 124.503906 396.789062 97.804688 385.945312 C 71.832031 379.050781 53.769531 366.457031 43.609375 348.160156 C 37.9375 339.363281 34.105469 329.472656 32.121094 318.488281 C 28.523438 302.28125 29.460938 295.921875 29.3125 256.082031 L 45.8125 256.082031 L 45.839844 273.863281 C 45.875 302.105469 47.359375 319.261719 50.300781 325.328125 C 56.0625 341.644531 65.949219 353.15625 79.96875 359.867188 C 118.988281 376.144531 142.964844 389.542969 151.90625 400.050781 L 151.90625 423.90625 C 152.046875 423.691406 152.191406 423.46875 152.335938 423.253906 "/>
<path style=" stroke:none;fill-rule:evenodd;fill:rgb(100%,82.352941%,0%);fill-opacity:1;" d="M 78.167969 256.082031 L 78.167969 232.140625 L 29.105469 232.140625 C 29.226562 241.28125 29.285156 249.175781 29.3125 256.082031 L 78.167969 256.082031 "/>
<path style=" stroke:none;fill-rule:evenodd;fill:rgb(100%,82.352941%,0%);fill-opacity:1;" d="M 266.730469 208.207031 L 223.597656 208.207031 L 223.597656 232.140625 L 274.710938 232.140625 C 274.804688 224.964844 274.9375 217.015625 275.125 208.207031 L 266.730469 208.207031 "/>
<path style=" stroke:none;fill-rule:evenodd;fill:rgb(100%,82.352941%,0%);fill-opacity:1;" d="M 127.898438 161.867188 L 151.90625 161.867188 L 151.90625 70.644531 C 144.285156 70.226562 136.285156 70.785156 127.898438 72.332031 L 127.898438 161.867188 "/>
<path style=" stroke:none;fill-rule:evenodd;fill:rgb(100%,82.352941%,0%);fill-opacity:1;" d="M 175.917969 391.488281 L 175.917969 303.785156 L 151.90625 303.785156 L 151.90625 423.90625 C 157.175781 415.773438 165.175781 408.21875 175.917969 401.234375 L 175.917969 391.488281 "/>
<path style=" stroke:none;fill-rule:evenodd;fill:rgb(100%,99.215686%,100%);fill-opacity:1;" d="M 102.429688 155.882812 L 201.386719 155.882812 L 175.917969 184.4375 L 175.917969 208.207031 L 199.757812 208.207031 L 228.398438 182.8125 L 228.398438 281.472656 L 199.757812 256.082031 L 175.917969 256.082031 L 175.917969 279.847656 L 201.386719 308.402344 L 102.429688 308.402344 L 127.898438 279.847656 L 127.898438 256.082031 L 104.058594 256.082031 L 75.421875 281.472656 L 75.421875 182.8125 L 104.058594 208.207031 L 127.898438 208.207031 L 127.898438 184.4375 L 102.429688 155.882812 "/>
<path style=" stroke:none;fill-rule:evenodd;fill:rgb(0.784314%,61.176471%,33.333333%);fill-opacity:1;" d="M 151.90625 0.5 L 157.734375 18.496094 L 176.699219 18.460938 L 161.335938 29.542969 L 167.234375 47.515625 L 151.90625 36.375 L 136.585938 47.515625 L 142.484375 29.542969 L 127.117188 18.460938 L 146.082031 18.496094 L 151.90625 0.5 "/>
<path style=" stroke:none;fill-rule:evenodd;fill:rgb(0.784314%,61.176471%,33.333333%);fill-opacity:1;" d="M 82.28125 15.714844 L 88.105469 33.714844 L 107.074219 33.679688 L 91.707031 44.761719 L 97.605469 62.738281 L 82.28125 51.589844 L 66.957031 62.738281 L 72.855469 44.761719 L 57.488281 33.679688 L 76.457031 33.714844 L 82.28125 15.714844 "/>
<path style=" stroke:none;fill-rule:evenodd;fill:rgb(0.784314%,61.176471%,33.333333%);fill-opacity:1;" d="M 25.34375 59.148438 L 31.167969 77.144531 L 50.136719 77.109375 L 34.769531 88.191406 L 40.664062 106.164062 L 25.34375 95.023438 L 10.023438 106.164062 L 15.917969 88.191406 L 0.550781 77.109375 L 19.515625 77.144531 L 25.34375 59.148438 "/>
<path style=" stroke:none;fill-rule:evenodd;fill:rgb(0.784314%,61.176471%,33.333333%);fill-opacity:1;" d="M 221.535156 15.714844 L 215.710938 33.714844 L 196.746094 33.679688 L 212.109375 44.761719 L 206.214844 62.738281 L 221.535156 51.589844 L 236.863281 62.738281 L 230.964844 44.761719 L 246.332031 33.679688 L 227.363281 33.714844 L 221.535156 15.714844 "/>
<path style=" stroke:none;fill-rule:evenodd;fill:rgb(0.784314%,61.176471%,33.333333%);fill-opacity:1;" d="M 278.476562 59.148438 L 272.652344 77.144531 L 253.683594 77.109375 L 269.046875 88.191406 L 263.152344 106.164062 L 278.476562 95.023438 L 293.796875 106.164062 L 287.902344 88.191406 L 303.265625 77.109375 L 284.304688 77.144531 L 278.476562 59.148438 "/>
<path style=" stroke:none;fill-rule:nonzero;fill:rgb(13.72549%,11.764706%,37.647059%);fill-opacity:1;" d="M 112.269531 234.484375 C 112.269531 236.402344 112.386719 237.960938 112.617188 239.167969 C 112.847656 240.371094 113.28125 241.324219 113.925781 242.015625 C 114.5625 242.707031 115.4375 243.179688 116.539062 243.425781 C 117.640625 243.675781 119.046875 243.796875 120.753906 243.796875 C 121.324219 243.796875 121.921875 243.796875 122.546875 243.796875 C 123.167969 243.796875 123.859375 243.796875 124.625 243.796875 C 125.390625 243.796875 126.269531 243.789062 127.269531 243.773438 C 128.261719 243.753906 129.421875 243.726562 130.738281 243.691406 L 129.296875 251.089844 C 127.089844 251.160156 125.328125 251.195312 124.015625 251.195312 C 122.695312 251.195312 121.449219 251.195312 120.277344 251.195312 C 117.109375 251.195312 114.429688 250.902344 112.246094 250.320312 C 110.054688 249.730469 108.285156 248.78125 106.929688 247.46875 C 105.578125 246.15625 104.609375 244.425781 104.023438 242.28125 C 103.4375 240.132812 103.140625 237.480469 103.140625 234.324219 L 103.140625 229.90625 C 103.140625 226.785156 103.453125 224.164062 104.074219 222.035156 C 104.699219 219.902344 105.6875 218.171875 107.039062 216.84375 C 108.390625 215.511719 110.160156 214.554688 112.351562 213.972656 C 114.535156 213.382812 117.179688 213.089844 120.277344 213.089844 C 120.808594 213.089844 121.398438 213.089844 122.035156 213.089844 C 122.679688 213.089844 123.398438 213.089844 124.199219 213.089844 C 125 213.089844 125.90625 213.101562 126.921875 213.117188 C 127.933594 213.136719 129.101562 213.160156 130.417969 213.199219 L 128.976562 220.59375 C 127.660156 220.558594 126.28125 220.53125 124.839844 220.515625 C 123.398438 220.496094 122 220.488281 120.648438 220.488281 C 118.90625 220.488281 117.492188 220.613281 116.40625 220.859375 C 115.320312 221.113281 114.464844 221.570312 113.84375 222.246094 C 113.21875 222.917969 112.804688 223.859375 112.589844 225.066406 C 112.378906 226.273438 112.269531 227.851562 112.269531 229.800781 Z M 137.253906 213.199219 L 154.710938 213.199219 C 158.699219 213.199219 161.605469 213.980469 163.4375 215.539062 C 165.269531 217.101562 166.1875 219.460938 166.1875 222.617188 L 166.1875 223.203125 C 166.1875 227.105469 164.621094 229.714844 161.492188 231.027344 C 163.304688 231.628906 164.71875 232.640625 165.734375 234.058594 C 166.746094 235.476562 167.257812 237.359375 167.257812 239.699219 L 167.257812 240.660156 C 167.257812 244.3125 166.144531 246.964844 163.917969 248.613281 C 161.695312 250.265625 158.464844 251.089844 154.230469 251.089844 L 137.253906 251.089844 Z M 145.53125 244.382812 L 153.589844 244.382812 C 155.476562 244.382812 156.804688 244.074219 157.566406 243.453125 C 158.332031 242.828125 158.714844 241.6875 158.714844 240.019531 L 158.714844 239.328125 C 158.714844 237.625 158.316406 236.445312 157.511719 235.789062 C 156.714844 235.132812 155.335938 234.804688 153.375 234.804688 L 145.53125 234.804688 Z M 145.53125 219.902344 L 145.53125 228.152344 L 152.949219 228.152344 C 154.691406 228.152344 155.921875 227.832031 156.636719 227.195312 C 157.34375 226.554688 157.699219 225.542969 157.699219 224.164062 L 157.699219 223.523438 C 157.699219 222.246094 157.371094 221.324219 156.714844 220.753906 C 156.054688 220.1875 154.921875 219.902344 153.324219 219.902344 Z M 182.636719 251.089844 L 173.828125 251.089844 L 173.828125 213.199219 L 200.675781 213.199219 L 199.289062 220.59375 L 182.636719 220.59375 L 182.636719 228.898438 L 198.488281 228.898438 L 197.101562 236.296875 L 182.636719 236.296875 L 182.636719 251.089844 "/>
<path style=" stroke:none;fill-rule:nonzero;fill:rgb(0.784314%,61.176471%,33.333333%);fill-opacity:1;" d="M 21.089844 443.824219 L 46.609375 443.824219 C 52.4375 443.824219 56.691406 444.960938 59.371094 447.246094 C 62.054688 449.527344 63.394531 452.980469 63.394531 457.59375 L 63.394531 458.453125 C 63.394531 464.15625 61.101562 467.972656 56.523438 469.886719 C 59.179688 470.773438 61.246094 472.25 62.726562 474.324219 C 64.210938 476.398438 64.953125 479.148438 64.953125 482.574219 L 64.953125 483.972656 C 64.953125 489.316406 63.328125 493.195312 60.074219 495.605469 C 56.824219 498.019531 52.101562 499.222656 45.910156 499.222656 L 21.089844 499.222656 Z M 33.1875 489.417969 L 44.972656 489.417969 C 47.730469 489.417969 49.667969 488.964844 50.785156 488.058594 C 51.90625 487.152344 52.464844 485.480469 52.464844 483.042969 L 52.464844 482.027344 C 52.464844 479.539062 51.878906 477.816406 50.710938 476.851562 C 49.539062 475.894531 47.523438 475.414062 44.660156 475.414062 L 33.1875 475.414062 Z M 33.1875 453.628906 L 33.1875 465.6875 L 44.039062 465.6875 C 46.585938 465.6875 48.382812 465.222656 49.421875 464.285156 C 50.460938 463.355469 50.980469 461.875 50.980469 459.851562 L 50.980469 458.917969 C 50.980469 457.050781 50.5 455.703125 49.539062 454.871094 C 48.578125 454.042969 46.925781 453.628906 44.582031 453.628906 Z M 118.039062 462.886719 C 118.039062 466.933594 117.191406 470.164062 115.503906 472.578125 C 113.8125 474.988281 111.351562 476.761719 108.125 477.90625 L 120.691406 499.222656 L 106.566406 499.222656 L 95.953125 479.773438 L 87.132812 479.773438 L 87.132812 499.222656 L 74.566406 499.222656 L 74.566406 443.824219 L 96.964844 443.824219 C 100.710938 443.824219 103.910156 444.132812 106.566406 444.753906 C 109.21875 445.375 111.390625 446.363281 113.082031 447.710938 C 114.769531 449.0625 116.019531 450.8125 116.828125 452.96875 C 117.632812 455.117188 118.039062 457.722656 118.039062 460.785156 Z M 105.394531 461.5625 C 105.394531 460.109375 105.238281 458.90625 104.925781 457.945312 C 104.609375 456.984375 104.117188 456.234375 103.445312 455.691406 C 102.765625 455.144531 101.871094 454.765625 100.75 454.558594 C 99.632812 454.351562 98.238281 454.25 96.574219 454.25 L 87.132812 454.25 L 87.132812 469.65625 L 96.574219 469.65625 C 98.238281 469.65625 99.632812 469.550781 100.75 469.34375 C 101.871094 469.136719 102.765625 468.75 103.445312 468.179688 C 104.117188 467.609375 104.609375 466.839844 104.925781 465.882812 C 105.238281 464.921875 105.394531 463.691406 105.394531 462.183594 Z M 163.082031 485.839844 L 143.101562 485.839844 L 138.730469 499.222656 L 125.777344 499.222656 L 145.832031 443.824219 L 160.972656 443.824219 L 181.113281 499.222656 L 167.609375 499.222656 Z M 146.226562 475.804688 L 159.960938 475.804688 L 153.015625 455.183594 Z M 214.84375 466.542969 C 217.546875 467.007812 219.808594 467.660156 221.628906 468.488281 C 223.453125 469.320312 224.910156 470.371094 226 471.640625 C 227.09375 472.914062 227.875 474.414062 228.34375 476.152344 C 228.8125 477.894531 229.042969 479.902344 229.042969 482.1875 L 229.042969 483.351562 C 229.042969 486.152344 228.679688 488.550781 227.953125 490.550781 C 227.222656 492.546875 226 494.203125 224.285156 495.53125 C 222.566406 496.855469 220.304688 497.824219 217.496094 498.445312 C 214.6875 499.070312 211.222656 499.382812 207.117188 499.382812 C 205.917969 499.382812 204.667969 499.382812 203.367188 499.382812 C 202.066406 499.382812 200.621094 499.382812 199.035156 499.382812 C 197.449219 499.382812 195.65625 499.371094 193.648438 499.34375 C 191.648438 499.320312 189.375 499.28125 186.824219 499.222656 L 188.773438 488.796875 C 192.882812 488.902344 196.382812 488.953125 199.269531 488.953125 C 202.15625 488.953125 204.824219 488.953125 207.269531 488.953125 C 208.988281 488.953125 210.40625 488.863281 211.527344 488.679688 C 212.640625 488.5 213.527344 488.203125 214.175781 487.789062 C 214.828125 487.375 215.269531 486.8125 215.503906 486.113281 C 215.738281 485.414062 215.855469 484.515625 215.855469 483.429688 C 215.855469 482.445312 215.789062 481.613281 215.660156 480.941406 C 215.53125 480.265625 215.242188 479.707031 214.800781 479.265625 C 214.359375 478.824219 213.761719 478.460938 213.003906 478.175781 C 212.253906 477.894531 211.25 477.648438 210 477.441406 L 201.808594 476.039062 C 198.789062 475.519531 196.316406 474.859375 194.394531 474.050781 C 192.46875 473.25 190.945312 472.222656 189.828125 470.980469 C 188.707031 469.734375 187.941406 468.257812 187.523438 466.542969 C 187.109375 464.832031 186.902344 462.835938 186.902344 460.554688 L 186.902344 459.304688 C 186.902344 456.816406 187.265625 454.613281 187.996094 452.691406 C 188.71875 450.773438 189.917969 449.140625 191.582031 447.789062 C 193.246094 446.441406 195.421875 445.417969 198.097656 444.714844 C 200.777344 444.015625 204.042969 443.667969 207.894531 443.667969 C 209.300781 443.667969 210.679688 443.667969 212.03125 443.667969 C 213.386719 443.667969 214.828125 443.667969 216.363281 443.667969 C 217.898438 443.667969 219.5625 443.679688 221.355469 443.707031 C 223.152344 443.734375 225.195312 443.773438 227.484375 443.824219 L 225.535156 454.25 C 221.472656 454.144531 218.027344 454.09375 215.191406 454.09375 C 212.355469 454.09375 209.84375 454.09375 207.660156 454.09375 C 206.101562 454.09375 204.800781 454.183594 203.757812 454.367188 C 202.71875 454.546875 201.910156 454.832031 201.339844 455.21875 C 200.765625 455.613281 200.363281 456.144531 200.128906 456.816406 C 199.898438 457.488281 199.78125 458.324219 199.78125 459.304688 C 199.78125 460.1875 199.84375 460.941406 199.972656 461.5625 C 200.105469 462.183594 200.363281 462.707031 200.753906 463.121094 C 201.144531 463.535156 201.703125 463.886719 202.429688 464.171875 C 203.160156 464.457031 204.125 464.699219 205.316406 464.910156 Z M 251.300781 443.824219 L 251.300781 499.222656 L 238.425781 499.222656 L 238.425781 443.824219 Z M 276.132812 443.824219 L 276.132812 488.410156 L 302.28125 488.410156 L 300.171875 499.222656 L 263.253906 499.222656 L 263.253906 443.824219 L 276.132812 443.824219 "/>
</g>
</svg>
